Same as on: 
http://www.btmon.com/Other/Unsorted/Stargate.Universe.S02E01.720p.HDTV.x264-CTU.mkv.torrent.html

(Since no one have uploaded it here yet.)



Media info:

    * Duration: 00:42:20.25, start: 0.000000, bitrate: N/A
    * Stream #0.0: Audio: ac3, 48000 Hz, 5:1
    * Stream #0.1(eng): Video: h264, yuv420p, 1280x720 [PAR 1:1 DAR 16:9], 23.98 tb(r)